<svg xmlns="http://www.w3.org/2000/svg" width="50" height="50" viewBox="0 0 52.391 50"><defs><style>.a{fill:#e4636b;}.b{fill:#bfc9d0;}</style></defs><g transform="translate(-103 -31.256)"><g transform="translate(118.621 42.65)"><path class="a" d="M62.443,78.828q.188-.313,1.175-.313h.768a3.9,3.9,0,0,0,1.576-.254,1.4,1.4,0,0,0,.761-.855q.338,1.1,2.371,1.1h.867a3.931,3.931,0,0,1,.573.031.634.634,0,0,1,.335.166.659.659,0,0,1,.188.386,4.474,4.474,0,0,1,.043.712,2.17,2.17,0,0,0,.288,0q.288,0,.864,0a4.894,4.894,0,0,0-.384-2.431,1.423,1.423,0,0,0-.411-.42,2.967,2.967,0,0,0-.6-.241,5.2,5.2,0,0,0-1.37-.124H68.8a1.536,1.536,0,0,1-1.067-.272,1.479,1.479,0,0,1-.271-1.036H65.89a3.928,3.928,0,0,1-.04.633.855.855,0,0,1-.172.393,1.342,1.342,0,0,1-1.02.282h-.583a5.827,5.827,0,0,0-1.4.138,1.941,1.941,0,0,0-.907.5,2.018,2.018,0,0,0-.517.981A6.992,6.992,0,0,0,61.1,79.8h1.152A1.944,1.944,0,0,1,62.443,78.828Z" transform="translate(-55.517 -75.278)"/><path class="a" d="M61.063,92.316a.954.954,0,0,0,.675-1.629l-2.21-2.209,2.2-2.2a.954.954,0,0,0-1.349-1.35l-3.149,3.149-.4.411,3.552,3.551A.946.946,0,0,0,61.063,92.316Z" transform="translate(-54.113 -78.362)"/><path class="a" d="M74.319,84.645a.954.954,0,0,0-.675,1.629l2.2,2.2-2.21,2.209a.954.954,0,1,0,1.35,1.349l3.552-3.551-.4-.411-3.149-3.149A.948.948,0,0,0,74.319,84.645Z" transform="translate(-59.551 -78.362)"/><path class="a" d="M60.444,112.725l-.077,1.462,2.53.133.785-14.98-2.53-.133-.077,1.462.577.03-.632,12.056Z" transform="translate(-55.275 -83.155)"/><path class="a" d="M74.758,99.2l-2.53.14.831,14.977,2.53-.14-.081-1.462-.577.032L74.262,100.7l.577-.032Z" transform="translate(-59.18 -83.154)"/><path class="a" d="M72.779,125.831v-2.064a.469.469,0,0,0-.47-.469H58.248a.469.469,0,0,0-.47.469v2.064h1.464v-.578H71.314v.578Z" transform="translate(-54.423 -91.086)"/><path class="a" d="M52.776,129.522v2.064H54.24v-.578H73.024v.578h1.464v-2.064a.469.469,0,0,0-.47-.47H53.246A.469.469,0,0,0,52.776,129.522Z" transform="translate(-52.776 -92.98)"/><rect class="a" width="5.078" height="1.736" rx="0.868" transform="matrix(0.707, -0.707, 0.707, 0.707, 8.532, 11.278)"/></g><path class="a" d="M98.072,107.82v12.82c0,1.292-.529,1.872-1.554,1.872H85.527a1.181,1.181,0,0,1-1.16-1.2v-1.662c-.056-1.424-1.722-1.2-1.722-1.2a1.181,1.181,0,0,1-1.16-1.2v-1.808a1.066,1.066,0,0,0-1.141-1.22,1.067,1.067,0,0,1-1.178-1.183s-.626-10.76-.614-10.831C86.172,103.043,93.026,104.676,98.072,107.82Z" transform="translate(57.319 -41.491)"/><path class="a" d="M50.3,113.7a1.076,1.076,0,0,1-1.057,1.095,1.076,1.076,0,0,0-1.056,1.094v2.1a1.076,1.076,0,0,1-1.056,1.095h-.9a1.076,1.076,0,0,0-1.057,1.094v1.876a1.076,1.076,0,0,1-1.056,1.095H33.7a.439.439,0,0,1-.309-.751l17.679-18.265Z" transform="translate(72.268 -42.126)"/><path class="b" d="M31.1,58.235H44.472A1.639,1.639,0,0,1,46.081,59.9v2.4c0,.921.248,1.668,1.137,1.668h1.191c1.435,0,1.609.96,1.609,1.881v1.936a1.639,1.639,0,0,1-1.609,1.668H44.24a2.177,2.177,0,1,0-.168,4.313h.942a1.639,1.639,0,0,1,1.609,1.668v.127a1.64,1.64,0,0,1-1.609,1.668,1.211,1.211,0,0,0-.935.655c-.264.471-.045,5.781-.006,5.9a42.9,42.9,0,0,0-14.549,5.85L29.49,59.52A1.614,1.614,0,0,1,31.1,58.235Z" transform="translate(73.51 -26.979)"/><path class="b" d="M100.031,61.666,84.86,76.837l.107.016a1.015,1.015,0,0,1,1.022.966,13.307,13.307,0,0,0,.269,2.468c.4,2.159,1.944,4.859,3.881,5.695,3.631,1.566,7.046,2.8,10.01,4.749l-.038-28.615A1.41,1.41,0,0,0,100.031,61.666Z" transform="translate(55.243 -28.109)"/></g></svg>
