<svg xmlns="http://www.w3.org/2000/svg" width="60" height="41.692" viewBox="0 0 60 41.692"><defs><style>.a{fill:#fff;}</style></defs><path class="a" d="M1021.694,161.807a11.69,11.69,0,0,1-9.13-2.8,15.7,15.7,0,0,1-4.99-8.642,29.13,29.13,0,0,1-.366-9.616,23.229,23.229,0,0,1,3.165-9.251,24.024,24.024,0,0,1,7.182-7.425,24.932,24.932,0,0,1,11.685-3.9l1.7,6.086a31.759,31.759,0,0,0-7.79,3.408q-4.143,2.435-5.356,8.277l3.651-.73a13.438,13.438,0,0,1,9.616,3.165,10.724,10.724,0,0,1,4.017,8.52,11.981,11.981,0,0,1-3.9,8.885A14.035,14.035,0,0,1,1021.694,161.807Zm32.134,0a11.678,11.678,0,0,1-9.251-2.8,16.041,16.041,0,0,1-4.869-8.642,23.784,23.784,0,0,1-.487-9.616,24.807,24.807,0,0,1,3.286-9.251,24.013,24.013,0,0,1,7.181-7.425,24.586,24.586,0,0,1,11.442-3.9l1.947,6.086a33.8,33.8,0,0,0-7.912,3.408q-4.262,2.435-5.478,8.277.971-.24,1.826-.366t2.069-.365a13.022,13.022,0,0,1,9.494,3.165,10.868,10.868,0,0,1,3.9,8.52,12.158,12.158,0,0,1-3.774,8.885A13.589,13.589,0,0,1,1053.828,161.807Z" transform="translate(-1006.974 -120.179)"/></svg>