<svg xmlns="http://www.w3.org/2000/svg" width="40.001" height="40" viewBox="0 0 40.001 40"><defs><style>.a{fill:#878e93;}</style></defs><g transform="translate(-661.07 -133.594)"><path class="a" d="M681.07,133.594a20,20,0,1,0,20,20A20.023,20.023,0,0,0,681.07,133.594Zm0,1.856a18.135,18.135,0,0,1,15.478,27.6c.01-.132.017-.264.017-.4H665.472c0,.071.006.14.009.21a18.134,18.134,0,0,1,15.59-27.414Z"/><path class="a" d="M689.888,168.1a5.692,5.692,0,1,0-5.693-5.693A5.7,5.7,0,0,0,689.888,168.1Zm0-9.529a3.836,3.836,0,1,1-3.837,3.836A3.841,3.841,0,0,1,689.888,158.575Z" transform="translate(-8.817 -8.817)"/><path class="a" d="M702.276,158.7a.4.4,0,0,0,.638.2l7.106-5.747a.4.4,0,0,0-.418-.685l-8.276,3.663a.4.4,0,0,0-.134.638A4.761,4.761,0,0,1,702.276,158.7Z" transform="translate(-15.258 -7.183)"/><circle class="a" cx="1.737" cy="1.737" r="1.737" transform="translate(678.597 139.8) rotate(-73.09)"/><path class="a" d="M676.884,148.989a1.122,1.122,0,1,0-1.518-.462A1.123,1.123,0,0,0,676.884,148.989Z" transform="translate(-5.4 -5.064)"/><path class="a" d="M707.489,148.989a1.123,1.123,0,1,0-1.519-.462A1.123,1.123,0,0,0,707.489,148.989Z" transform="translate(-17.07 -5.064)"/><path class="a" d="M669.567,165.014a1.737,1.737,0,1,0-1.737,1.737A1.737,1.737,0,0,0,669.567,165.014Z" transform="translate(-1.915 -11.318)"/><path class="a" d="M714.093,163.473a1.737,1.737,0,1,0,1.737-1.737A1.737,1.737,0,0,0,714.093,163.473Z" transform="translate(-20.217 -10.73)"/></g></svg>