<svg xmlns="http://www.w3.org/2000/svg" width="74.936" height="39" viewBox="0 0 74.936 39"><defs><style>.a{fill:#878e93;stroke:rgba(0,0,0,0);stroke-miterlimit:10;}</style></defs><g transform="translate(-590.061 -38.474)"><path class="a" d="M38.867,38a3.333,3.333,0,0,1-2.316-.94,3.335,3.335,0,0,1-2.316.94H14.91a3.353,3.353,0,0,1-3.349-3.349V27.306a3.331,3.331,0,0,1,.258-1.284H3.35A3.352,3.352,0,0,1,0,22.672V15.328a3.354,3.354,0,0,1,3.35-3.35h8.47a3.327,3.327,0,0,1-.258-1.283V3.349A3.353,3.353,0,0,1,14.91,0H34.235a3.335,3.335,0,0,1,2.316.94A3.333,3.333,0,0,1,38.867,0H58.191A3.353,3.353,0,0,1,61.54,3.349v7.345a3.314,3.314,0,0,1-.258,1.283h9.3a3.354,3.354,0,0,1,3.35,3.35v7.345a3.353,3.353,0,0,1-3.35,3.349h-9.3a3.318,3.318,0,0,1,.258,1.284v7.345A3.353,3.353,0,0,1,58.191,38ZM37.584,27.306v7.345a1.284,1.284,0,0,0,1.283,1.283H58.191a1.284,1.284,0,0,0,1.283-1.283V27.306a1.285,1.285,0,0,0-1.283-1.284H38.867A1.285,1.285,0,0,0,37.584,27.306Zm-23.956,0v7.345a1.285,1.285,0,0,0,1.283,1.283H34.235a1.284,1.284,0,0,0,1.283-1.283V27.306a1.285,1.285,0,0,0-1.283-1.284H14.91A1.286,1.286,0,0,0,13.627,27.306ZM49.98,15.328v7.345a1.284,1.284,0,0,0,1.283,1.283H70.586a1.284,1.284,0,0,0,1.283-1.283V15.328a1.285,1.285,0,0,0-1.283-1.284H51.263A1.285,1.285,0,0,0,49.98,15.328Zm-23.957,0v7.345a1.285,1.285,0,0,0,1.284,1.283H46.63a1.285,1.285,0,0,0,1.283-1.283V15.328a1.285,1.285,0,0,0-1.283-1.284H27.306A1.286,1.286,0,0,0,26.022,15.328Zm-23.957,0v7.345A1.285,1.285,0,0,0,3.35,23.956H22.673a1.284,1.284,0,0,0,1.283-1.283V15.328a1.285,1.285,0,0,0-1.283-1.284H3.35A1.286,1.286,0,0,0,2.066,15.328ZM37.584,3.349v7.345a1.284,1.284,0,0,0,1.283,1.283H58.191a1.284,1.284,0,0,0,1.283-1.283V3.349a1.285,1.285,0,0,0-1.283-1.283H38.867A1.285,1.285,0,0,0,37.584,3.349Zm-23.956,0v7.345a1.285,1.285,0,0,0,1.283,1.283H34.235a1.284,1.284,0,0,0,1.283-1.283V3.349a1.285,1.285,0,0,0-1.283-1.283H14.91A1.286,1.286,0,0,0,13.627,3.349ZM32.3,33.663a.806.806,0,1,1,.805.805A.805.805,0,0,1,32.3,33.663Zm-2.828,0a.805.805,0,1,1,.805.805A.8.8,0,0,1,29.471,33.663Zm1.478-2.747a.805.805,0,1,1,.805.806A.806.806,0,0,1,30.95,30.916Zm8.89-1.682a.805.805,0,1,1,.805.805A.806.806,0,0,1,39.839,29.234ZM19.067,21.047a.805.805,0,1,1,.805.805A.806.806,0,0,1,19.067,21.047Zm34.845-.322a.806.806,0,1,1,.805.805A.805.805,0,0,1,53.912,20.725ZM15.143,19.7a.806.806,0,1,1,.806.806A.806.806,0,0,1,15.143,19.7Zm40.768-.976a.806.806,0,1,1,.806.806A.806.806,0,0,1,55.911,18.725ZM17.143,17.7a.806.806,0,1,1,.805.805A.806.806,0,0,1,17.143,17.7ZM43.86,9.441a.805.805,0,1,1,.805.806A.806.806,0,0,1,43.86,9.441Zm-2.828,0a.806.806,0,1,1,.806.806A.806.806,0,0,1,41.032,9.441Zm-9.908-.3a.805.805,0,1,1,.805.805A.805.805,0,0,1,31.124,9.138Zm9.908-3.316a.806.806,0,1,1,.806.806A.806.806,0,0,1,41.032,5.823Z" transform="translate(590.561 38.974)"/></g></svg>