<svg xmlns="http://www.w3.org/2000/svg" width="53.477" height="50" viewBox="0 0 53.477 50"><defs><style>.a{fill:#878e93;}</style></defs><g transform="translate(-709.022 -11.438)"><path class="a" d="M752.9,56.308a5.868,5.868,0,0,0-4.016-.438L739.707,57.5l-.059-.014s-2.349.535-8.781-.907c-1.375-.321-2.214-.864-2.461-1.634-.522-1.658,1.409-4.278,2.22-5.173,1.586-1.487,1.349-3.971-.622-6.959a1.665,1.665,0,0,0-1.457-.737,1.627,1.627,0,0,0-1.371.857,12.7,12.7,0,0,1-4.061,4.786c-2.907,1.649-4.577,7.285-5,8.872l-2.9,1.8-.415-.666a.9.9,0,0,0-1.209-.283L709.417,60a.875.875,0,0,0,.923,1.486l3.427-2.128,6.109,9.9-3.428,2.128a.875.875,0,1,0,.9,1.449l4.21-2.565a.869.869,0,0,0,.275-1.174l-.51-.863,3.768-2.34c1.506.049,8.75.188,13.7-.94A89.579,89.579,0,0,0,754.275,59.9l.69-.3-.188-.731A4.017,4.017,0,0,0,752.9,56.308Zm-14.5,6.935c-5.2,1.187-13.432.892-13.518.89l-.264-.012L720.4,66.747l-4.271-6.876,3.521-2.187.083-.353c.431-1.844,2.087-6.888,4.244-8.112a14.079,14.079,0,0,0,4.633-5.246c.706,1.088,1.985,3.43.787,4.581l-.012.053c-.365.4-3.535,3.967-2.617,6.9.437,1.39,1.673,2.33,3.681,2.8l.083.019c6.484,1.46,9.069,1,9.509.892l9.2-1.621.064-.041c.285-.076,2.544-.6,3.476,1.029A87.153,87.153,0,0,1,738.4,63.244Z" transform="translate(0 -11.648)"/><path class="a" d="M757.116,42.144A15.556,15.556,0,1,0,745.51,23.454,15.574,15.574,0,0,0,757.116,42.144Zm-6.088-5.415,3.635-3.264a23,23,0,0,0,5.3,4.363,16.44,16.44,0,0,0-1.049,2.754,13.955,13.955,0,0,1-1.375-.249A13.611,13.611,0,0,1,751.027,36.729Zm.59-20.011c.112-.1.224-.195.338-.288l2.557,3.541a10.588,10.588,0,0,1-3.223,1.452A16.362,16.362,0,0,1,751.618,16.717Zm-2.17,4.992a9.594,9.594,0,0,1-1.418-.012,13.583,13.583,0,0,1,1.38-2.511A18.5,18.5,0,0,0,749.448,21.71Zm8.63-5.427a12.223,12.223,0,0,1-2.1,2.54l-2.511-3.476c.271-.167.548-.322.831-.47l-.035.149A22.642,22.642,0,0,1,758.078,16.282Zm-1.2-2.446a13.573,13.573,0,0,1,2.546-.478c-.14.436-.3.858-.484,1.271Q757.94,14.189,756.881,13.836Zm13.138,23.151c-.183.17-.369.337-.561.5L766.4,33.249a11.448,11.448,0,0,1,3.842-1.587A16.38,16.38,0,0,1,770.019,36.987Zm2.068-5.538a10.6,10.6,0,0,1,1.5.059,13.55,13.55,0,0,1-1.383,2.847A18.3,18.3,0,0,0,772.086,31.449Zm-6.787.28-3.423-4.74,4.665-4.188a18.511,18.511,0,0,1,3.373,7.025A13.3,13.3,0,0,0,765.3,31.729Zm-4.518-6.256-3.706-5.129a14.086,14.086,0,0,0,2.679-3.251,21.3,21.3,0,0,1,5.585,4.288Zm-5.18-4,3.789,5.245-4.524,4.061a18.316,18.316,0,0,1-3.333-7.5A12.425,12.425,0,0,0,755.6,21.477Zm4.883,6.761,3.33,4.61a15.152,15.152,0,0,0-2.948,3.357,21.117,21.117,0,0,1-4.823-3.98ZM761.6,38.724a24.223,24.223,0,0,0,3.212,1.32,13.618,13.618,0,0,1-4,.646A14.627,14.627,0,0,1,761.6,38.724Zm5.716.236.031-.133a22.546,22.546,0,0,1-4.835-1.725,13.309,13.309,0,0,1,2.4-2.747l3.05,4.223C767.743,38.711,767.53,38.839,767.312,38.96Zm6.77-9.266a12.383,12.383,0,0,0-2.314-.1,20.383,20.383,0,0,0-3.843-8.031l3.441-3.089A13.677,13.677,0,0,1,774.082,29.695Zm-3.968-12.6-3.391,3.044a23.15,23.15,0,0,0-6.111-4.7,15.132,15.132,0,0,0,.754-2.123,13.621,13.621,0,0,1,8.747,3.775Zm-22.695,6.4a11.474,11.474,0,0,0,2.277.058,20.21,20.21,0,0,0,3.783,8.473l-3.68,3.3a13.675,13.675,0,0,1-2.479-11.455C747.35,23.75,747.386,23.625,747.419,23.5Z" transform="translate(-13.717 0)"/></g></svg>