<svg width="321" height="52" viewBox="0 0 321 52" fill="none" xmlns="http://www.w3.org/2000/svg">
<path d="M51.7802 50.1191H68.4713C83.0316 50.1191 94.3957 38.6839 94.3957 25.26C94.3957 11.8361 83.0316 0.40094 68.4713 0.40094H51.7802V50.1191ZM59.593 43.0165V7.50353H68.4713C78.77 7.50353 86.5829 15.3164 86.5829 25.26C86.5829 35.2036 78.77 43.0165 68.4713 43.0165H59.593Z" fill="#282828"/>
<path d="M122.007 50.1191H129.11V28.4562C129.11 20.9985 123.428 15.3164 114.905 15.3164C110.359 15.3164 107.092 16.879 104.819 18.5125C103.47 19.4359 102.333 20.5013 101.41 21.7087L106.026 26.3254C106.737 25.4731 107.518 24.6918 108.441 24.0526C110.075 22.9162 112.135 21.7087 114.905 21.7087C119.166 21.7087 122.007 24.4787 122.007 28.101L109.578 30.2318C103.541 31.2972 99.6341 35.2036 99.6341 40.8857C99.6341 46.2127 104.18 50.8293 110.998 50.8293C114.692 50.8293 117.391 49.4088 119.308 47.9883C120.374 47.136 121.297 46.2127 122.007 45.1473V50.1191ZM122.007 34.8485C122.007 40.5306 117.746 44.7921 112.419 44.7921C108.796 44.7921 106.737 42.6614 106.737 40.1754C106.737 37.9736 108.441 36.198 112.064 35.5588L122.007 33.7831V34.8485Z" fill="#282828"/>
<path d="M134.678 44.437C135.602 45.6444 136.738 46.7098 138.088 47.6332C140.361 49.2668 143.628 50.8293 148.173 50.8293C156.412 50.8293 161.313 45.8575 161.313 40.1754C161.313 28.101 143.202 30.9421 143.202 25.26C143.202 23.4844 144.906 21.7087 148.529 21.7087C150.801 21.7087 152.648 22.3479 153.998 23.1292C154.779 23.5554 155.418 24.0526 155.986 24.5497L160.603 19.9331C159.822 19.0808 158.827 18.2995 157.62 17.6602C155.631 16.5238 152.577 15.3164 148.529 15.3164C140.787 15.3164 136.099 19.9331 136.099 25.26C136.099 37.4054 154.211 34.4934 154.211 40.1754C154.211 42.3772 152.151 44.437 148.173 44.437C145.403 44.437 143.344 43.3006 141.71 42.1642C140.787 41.5249 140.005 40.7437 139.295 39.8203L134.678 44.437Z" fill="#282828"/>
<path d="M167.95 50.1191H175.053V31.6523C175.053 25.9703 178.959 22.0638 184.286 22.0638C188.903 22.0638 192.099 25.189 192.099 30.2318V50.1191H199.201V30.2318C199.201 20.9274 193.519 15.3164 185.706 15.3164C182.084 15.3164 179.456 16.7369 177.68 18.1574C176.615 19.0097 175.763 19.9331 175.053 20.9985V0.40094H167.95V50.1191Z" fill="#282828"/>
<path d="M233.566 50.1191H240.669V0.40094H233.566V20.9985C232.856 19.9331 231.932 19.0097 230.796 18.1574C228.878 16.7369 225.895 15.3164 221.847 15.3164C213.324 15.3164 205.866 22.7741 205.866 33.0729C205.866 43.3716 213.324 50.8293 221.847 50.8293C225.895 50.8293 228.878 49.4088 230.796 47.9883C231.932 47.136 232.856 46.2127 233.566 45.1473V50.1191ZM223.267 44.0819C217.585 44.0819 212.968 39.5362 212.968 33.0729C212.968 26.6095 217.585 22.0638 223.267 22.0638C228.949 22.0638 233.566 26.6095 233.566 33.0729C233.566 39.5362 228.949 44.0819 223.267 44.0819Z" fill="#282828"/>
<path d="M247.724 33.0729C247.724 43.0165 255.537 50.8293 265.481 50.8293C275.424 50.8293 283.237 43.0165 283.237 33.0729C283.237 23.1292 275.424 15.3164 265.481 15.3164C255.537 15.3164 247.724 23.1292 247.724 33.0729ZM265.481 44.0819C259.443 44.0819 254.827 39.5362 254.827 33.0729C254.827 26.6095 259.443 22.0638 265.481 22.0638C271.518 22.0638 276.135 26.6095 276.135 33.0729C276.135 39.5362 271.518 44.0819 265.481 44.0819Z" fill="#282828"/>
<path d="M315.124 39.1101C314.343 40.0334 313.491 40.8857 312.567 41.596C310.934 42.9455 308.59 44.0819 305.536 44.0819C299.498 44.0819 294.882 39.5362 294.882 33.0729C294.882 26.6095 299.498 22.0638 305.536 22.0638C308.59 22.0638 310.792 23.2713 312.425 24.4077C313.349 25.0469 314.13 25.8282 314.769 26.6805L319.741 22.0638C318.818 20.8564 317.61 19.72 316.261 18.7256C313.917 17.021 310.365 15.3164 305.536 15.3164C295.592 15.3164 287.779 23.1292 287.779 33.0729C287.779 43.0165 295.592 50.8293 305.536 50.8293C310.365 50.8293 313.917 49.0537 316.403 47.278C317.823 46.2127 319.031 45.0762 320.096 43.7267L315.124 39.1101Z" fill="#282828"/>
<path fill-rule="evenodd" clip-rule="evenodd" d="M51.4938 0.114563H68.4713C83.1824 0.114563 94.6822 11.6707 94.6822 25.26C94.6822 38.8493 83.1824 50.4055 68.4713 50.4055H51.4938V0.114563ZM52.0666 0.687352V49.8327H68.4713C82.8808 49.8327 94.1094 38.5185 94.1094 25.26C94.1094 12.0015 82.8808 0.687352 68.4713 0.687352H52.0666ZM167.664 0.114563H175.339V20.1105C175.954 19.3186 176.664 18.6039 177.502 17.9338C179.314 16.4842 182.003 15.03 185.706 15.03C189.684 15.03 193.136 16.4599 195.593 19.0895C198.049 21.7178 199.488 25.5211 199.488 30.2318V50.4055H191.812V30.2318C191.812 27.7718 191.034 25.806 189.719 24.4567C188.404 23.1077 186.528 22.3503 184.286 22.3503C179.124 22.3503 175.339 26.1212 175.339 31.6524V50.4055H167.664V0.114563ZM168.236 0.687352V49.8327H174.766V31.6524C174.766 25.8194 178.794 21.7775 184.286 21.7775C186.661 21.7775 188.691 22.5826 190.129 24.0569C191.566 25.5308 192.385 27.649 192.385 30.2318V49.8327H198.915V30.2318C198.915 25.6382 197.513 21.9838 195.174 19.4805C192.837 16.9784 189.542 15.6028 185.706 15.6028C182.166 15.6028 179.599 16.9896 177.859 18.3811C176.816 19.216 175.984 20.1178 175.291 21.1573L174.766 21.9444V0.687352H168.236ZM233.28 0.114563H240.955V50.4055H233.28V46.0224C232.637 46.8242 231.865 47.5445 230.968 48.2174L230.966 48.2184C229.008 49.6695 225.966 51.1157 221.847 51.1157C213.146 51.1157 205.579 43.5097 205.579 33.0729C205.579 22.636 213.146 15.03 221.847 15.03C225.966 15.03 229.008 16.4763 230.966 17.9273L230.968 17.9283C231.865 18.6012 232.637 19.3215 233.28 20.1234V0.114563ZM233.852 0.687352V21.9444L233.328 21.1573C232.639 20.1245 231.741 19.2238 230.624 18.3866C228.748 16.9969 225.823 15.6028 221.847 15.6028C213.501 15.6028 206.152 22.9122 206.152 33.0729C206.152 43.2335 213.501 50.543 221.847 50.543C225.823 50.543 228.748 49.1489 230.624 47.7592C231.741 46.9219 232.639 46.0212 233.328 44.9884L233.852 44.2014V49.8327H240.382V0.687352H233.852ZM59.3067 7.21716H68.4713C78.9245 7.21716 86.8693 15.1545 86.8693 25.26C86.8693 35.3655 78.9245 43.3029 68.4713 43.3029H59.3067V7.21716ZM59.8795 7.78995V42.7301H68.4713C78.6156 42.7301 86.2965 35.0418 86.2965 25.26C86.2965 15.4783 78.6156 7.78995 68.4713 7.78995H59.8795ZM104.655 18.2781C106.966 16.6177 110.289 15.03 114.905 15.03C123.571 15.03 129.396 20.8256 129.396 28.4562V50.4055H121.721V46.0234C121.082 46.8235 120.325 47.5418 119.487 48.212L119.483 48.2153L119.479 48.2184C117.529 49.6625 114.772 51.1157 110.998 51.1157C104.046 51.1157 99.3478 46.3942 99.3478 40.8857C99.3478 37.9748 100.35 35.506 102.135 33.6301C103.916 31.7572 106.462 30.4909 109.528 29.9498L109.529 29.9496L121.717 27.8603C121.594 24.5352 118.934 21.9951 114.905 21.9951C112.224 21.9951 110.225 23.1609 108.605 24.2877C107.709 24.9078 106.946 25.6693 106.247 26.5088L106.046 26.7497L101.03 21.7339L101.182 21.5348C102.125 20.3022 103.283 19.2169 104.655 18.2781ZM114.905 15.6028C110.431 15.6028 107.221 17.139 104.986 18.7451L104.981 18.749C103.729 19.6056 102.666 20.5844 101.791 21.6852L106.009 25.9031C106.677 25.1296 107.415 24.4147 108.278 23.8175C109.925 22.6714 112.045 21.4223 114.905 21.4223C119.302 21.4223 122.294 24.299 122.294 28.1011V28.3425L109.628 30.5139C106.657 31.0382 104.23 32.2579 102.55 34.0249C100.871 35.7892 99.9206 38.1146 99.9206 40.8857C99.9206 46.0311 104.314 50.543 110.998 50.543C114.609 50.543 117.248 49.1572 119.134 47.7613C120.182 46.9221 121.081 46.0207 121.769 44.9884L122.294 44.2014V49.8327H128.824V28.4562C128.824 21.1713 123.285 15.6028 114.905 15.6028ZM135.813 25.26C135.813 19.7332 140.674 15.03 148.529 15.03C152.634 15.03 155.735 16.254 157.758 17.4093C158.992 18.0629 160.011 18.8632 160.814 19.7396L160.999 19.9417L155.999 24.9417L155.798 24.7653C155.239 24.276 154.617 23.7932 153.86 23.3807L153.854 23.3772C152.544 22.6187 150.746 21.9951 148.529 21.9951C144.986 21.9951 143.488 23.7113 143.488 25.26C143.488 26.4865 144.451 27.3072 146.144 28.0261C146.977 28.3803 147.955 28.6956 149.016 29.0187C149.284 29.1005 149.558 29.1828 149.836 29.2663C150.651 29.5112 151.5 29.7663 152.348 30.0489C154.62 30.8062 156.931 31.7754 158.674 33.3367C160.431 34.9096 161.6 37.0727 161.6 40.1755C161.6 46.053 156.531 51.1157 148.173 51.1157C143.558 51.1157 140.234 49.528 137.923 47.8677C136.552 46.9289 135.394 45.8435 134.451 44.611L134.299 44.4118L139.323 39.3872L139.522 39.6457C140.218 40.55 140.978 41.3092 141.873 41.9287C143.487 43.0514 145.489 44.1506 148.173 44.1506C152.063 44.1506 153.924 42.1571 153.924 40.1755C153.924 38.9496 152.962 38.133 151.269 37.4197C150.436 37.0682 149.458 36.7559 148.397 36.4357C148.135 36.3565 147.867 36.2767 147.595 36.1958C146.775 35.9513 145.919 35.6964 145.065 35.4134C142.793 34.6605 140.482 33.6934 138.738 32.1285C136.981 30.552 135.813 28.38 135.813 25.26ZM148.529 15.6028C140.9 15.6028 136.385 20.133 136.385 25.26C136.385 28.2128 137.481 30.2313 139.12 31.7022C140.772 33.1847 142.989 34.1221 145.245 34.8696C146.09 35.1497 146.934 35.401 147.752 35.6449C148.026 35.7263 148.296 35.8068 148.563 35.8874C149.624 36.2078 150.628 36.5275 151.492 36.8918C153.196 37.6101 154.497 38.5603 154.497 40.1755C154.497 42.5974 152.239 44.7234 148.173 44.7234C145.318 44.7234 143.2 43.5495 141.547 42.3993C140.682 41.8008 139.941 41.0834 139.27 40.2508L135.06 44.4605C135.935 45.5613 136.998 46.5402 138.249 47.3968L138.255 47.4006C140.49 49.0067 143.7 50.543 148.173 50.543C156.294 50.543 161.027 45.6621 161.027 40.1755C161.027 37.241 159.932 35.2314 158.292 33.7634C156.64 32.2839 154.423 31.3444 152.167 30.5923C151.328 30.3127 150.491 30.0611 149.678 29.8168C149.398 29.7328 149.122 29.6497 148.849 29.5667C147.787 29.2433 146.784 28.9205 145.92 28.5533C144.216 27.8295 142.915 26.8746 142.915 25.26C142.915 23.2575 144.827 21.4223 148.529 21.4223C150.855 21.4223 152.749 22.0763 154.138 22.8796C154.85 23.2682 155.445 23.7127 155.972 24.1593L160.204 19.9273C159.476 19.177 158.57 18.4873 157.486 17.9134L157.482 17.9112L157.478 17.9089C155.523 16.7921 152.518 15.6028 148.529 15.6028ZM247.438 33.0729C247.438 22.9711 255.379 15.03 265.481 15.03C275.583 15.03 283.524 22.9711 283.524 33.0729C283.524 43.1747 275.583 51.1157 265.481 51.1157C255.379 51.1157 247.438 43.1747 247.438 33.0729ZM265.481 15.6028C255.695 15.6028 248.011 23.2874 248.011 33.0729C248.011 42.8583 255.695 50.543 265.481 50.543C275.266 50.543 282.951 42.8583 282.951 33.0729C282.951 23.2874 275.266 15.6028 265.481 15.6028ZM287.493 33.0729C287.493 22.9711 295.434 15.03 305.536 15.03C310.437 15.03 314.046 16.7611 316.429 18.494L316.431 18.4951C317.797 19.502 319.025 20.6568 319.968 21.8899L320.127 22.0966L314.731 27.1069L314.54 26.8524C313.917 26.0223 313.158 25.2633 312.262 24.6432C310.652 23.5228 308.507 22.3503 305.536 22.3503C299.662 22.3503 295.168 26.7627 295.168 33.0729C295.168 39.3831 299.662 43.7955 305.536 43.7955C308.514 43.7955 310.795 42.6885 312.385 41.3752L312.389 41.372L312.393 41.369C313.296 40.6739 314.134 39.8369 314.906 38.9251L315.099 38.6961L320.485 43.6968L320.321 43.9042C319.238 45.276 318.012 46.4293 316.575 47.5072L316.569 47.5111C314.05 49.3105 310.442 51.1157 305.536 51.1157C295.434 51.1157 287.493 43.1747 287.493 33.0729ZM305.536 15.6028C295.75 15.6028 288.066 23.2874 288.066 33.0729C288.066 42.8583 295.75 50.543 305.536 50.543C310.288 50.543 313.781 48.7982 316.233 47.0471C317.563 46.0497 318.699 44.9924 319.706 43.7554L315.148 39.5226C314.411 40.3694 313.61 41.1544 312.746 41.82C311.069 43.2043 308.663 44.3683 305.536 44.3683C299.335 44.3683 294.595 39.6894 294.595 33.0729C294.595 26.4563 299.335 21.7775 305.536 21.7775C308.672 21.7775 310.932 23.0199 312.588 24.1722M305.536 15.6028C310.293 15.6028 313.786 17.2804 316.091 18.9564L305.536 15.6028ZM223.267 22.3503C217.755 22.3503 213.255 26.7562 213.255 33.0729C213.255 39.3895 217.755 43.7955 223.267 43.7955C228.78 43.7955 233.28 39.3895 233.28 33.0729C233.28 26.7562 228.78 22.3503 223.267 22.3503ZM212.682 33.0729C212.682 26.4628 217.416 21.7775 223.267 21.7775C229.119 21.7775 233.852 26.4628 233.852 33.0729C233.852 39.683 229.119 44.3683 223.267 44.3683C217.416 44.3683 212.682 39.683 212.682 33.0729ZM265.481 22.3503C259.607 22.3503 255.113 26.7627 255.113 33.0729C255.113 39.3831 259.607 43.7955 265.481 43.7955C271.355 43.7955 275.848 39.3831 275.848 33.0729C275.848 26.7627 271.355 22.3503 265.481 22.3503ZM254.54 33.0729C254.54 26.4563 259.28 21.7775 265.481 21.7775C271.681 21.7775 276.421 26.4563 276.421 33.0729C276.421 39.6894 271.681 44.3683 265.481 44.3683C259.28 44.3683 254.54 39.6894 254.54 33.0729ZM122.294 33.4411V34.8485C122.294 40.6819 117.911 45.0785 112.419 45.0785C110.552 45.0785 109.06 44.5288 108.031 43.6319C107.001 42.734 106.45 41.5011 106.45 40.1755C106.45 38.9929 106.911 37.9219 107.849 37.0692C108.781 36.2225 110.169 35.6024 112.013 35.2768M112.013 35.2768L122.294 33.4411L112.013 35.2768ZM121.721 34.1252L112.114 35.8407C110.337 36.1544 109.061 36.7418 108.235 37.4931C107.415 38.2385 107.023 39.1562 107.023 40.1755C107.023 41.3358 107.502 42.4112 108.408 43.2001C109.314 43.9901 110.664 44.5057 112.419 44.5057C117.581 44.5057 121.721 40.3793 121.721 34.8485V34.1252Z" fill="#282828"/>
<path d="M26.8071 0H4.67089C3.00384 0 2.2012 2.04397 3.4228 3.17832L16.7987 15.5988C17.4998 16.2498 17.7001 17.279 17.2943 18.1453L11.7158 30.0562C11.4066 30.7164 11.5898 31.5025 12.1591 31.958C12.6776 32.3728 13.4003 32.4187 13.9672 32.0727L32.6214 20.6882C35.9423 18.6614 37.9682 15.0516 37.9682 11.1611C37.9682 4.997 32.9712 0 26.8071 0Z" fill="url(#paint0_linear_1617_193)"/>
<defs>
<linearGradient id="paint0_linear_1617_193" x1="7.44518e-08" y1="24" x2="31" y2="1.65772e-06" gradientUnits="userSpaceOnUse">
<stop stop-color="#0C2141"/>
<stop offset="1" stop-color="#3B64F4"/>
</linearGradient>
</defs>
</svg>
