<svg xmlns="http://www.w3.org/2000/svg" width="28.44" height="20" viewBox="0 0 28.44 20"><defs><style>.a{fill:#e4636b;}</style></defs><path class="a" d="M2,6c0-.552.637-1,1.422-1h25.6c.785,0,1.422.448,1.422,1S29.8,7,29.018,7H3.422C2.637,7,2,6.552,2,6Z" transform="translate(-2 -5)"/><path class="a" d="M2,12.032c0-.552.637-1,1.422-1h25.6c.785,0,1.422.448,1.422,1s-.637,1-1.422,1H3.422C2.637,13.032,2,12.585,2,12.032Z" transform="translate(-2 -2.032)"/><path class="a" d="M3.422,17.065c-.785,0-1.422.448-1.422,1s.637,1,1.422,1h25.6c.785,0,1.422-.448,1.422-1s-.637-1-1.422-1Z" transform="translate(-2 0.935)"/></svg>