<svg xmlns="http://www.w3.org/2000/svg" width="47.201" height="83.93" viewBox="0 0 47.201 83.93"><defs><style>.a{fill:#e4636b;}</style></defs><path class="a" d="M64.017,83q.409-.68,2.555-.681h1.67a8.474,8.474,0,0,0,3.427-.553A3.037,3.037,0,0,0,73.325,79.9q.735,2.4,5.154,2.4h1.886a8.55,8.55,0,0,1,1.245.067,1.378,1.378,0,0,1,.728.36,1.433,1.433,0,0,1,.41.839,9.734,9.734,0,0,1,.093,1.549,4.727,4.727,0,0,0,.627.007q.626-.007,1.878-.007,0-4.1-.834-5.285a3.1,3.1,0,0,0-.894-.913,6.452,6.452,0,0,0-1.3-.525,11.312,11.312,0,0,0-2.979-.27h-1.5a3.339,3.339,0,0,1-2.319-.591,3.215,3.215,0,0,1-.589-2.253H71.51a8.539,8.539,0,0,1-.086,1.377,1.859,1.859,0,0,1-.375.855,2.916,2.916,0,0,1-2.217.613H67.565a12.668,12.668,0,0,0-3.045.3,4.22,4.22,0,0,0-1.972,1.092,4.386,4.386,0,0,0-1.123,2.134,15.2,15.2,0,0,0-.324,3.467h2.5A4.226,4.226,0,0,1,64.017,83Z" transform="translate(-48.96 -75.278)"/><path class="a" d="M66.025,101.321a2.075,2.075,0,0,0,1.467-3.542l-4.8-4.8,4.789-4.791a2.074,2.074,0,0,0-2.933-2.934L57.7,92.1l-.862.894,7.722,7.721A2.056,2.056,0,0,0,66.025,101.321Z" transform="translate(-50.915 -70.984)"/><path class="a" d="M75.448,84.645a2.075,2.075,0,0,0-1.467,3.541l4.789,4.791-4.8,4.8a2.074,2.074,0,1,0,2.934,2.933l7.722-7.721-.862-.894-6.847-6.846A2.062,2.062,0,0,0,75.448,84.645Z" transform="translate(-43.342 -70.984)"/><path class="a" d="M60.534,128.6l-.167,3.179,5.5.288L67.574,99.5l-5.5-.288-.167,3.179,1.255.066-1.374,26.21Z" transform="translate(-49.296 -64.31)"/><path class="a" d="M77.728,99.2l-5.5.305,1.808,32.561,5.5-.305-.176-3.178-1.255.07L76.65,102.451l1.255-.07Z" transform="translate(-43.86 -64.311)"/><path class="a" d="M90.39,128.8v-4.487a1.021,1.021,0,0,0-1.021-1.019H58.8a1.021,1.021,0,0,0-1.021,1.019V128.8h3.184v-1.257H87.206V128.8Z" transform="translate(-50.483 -53.267)"/><path class="a" d="M52.776,130.073v4.487h3.182V133.3H96.8v1.257h3.182v-4.487a1.02,1.02,0,0,0-1.021-1.021H53.8A1.02,1.02,0,0,0,52.776,130.073Z" transform="translate(-52.776 -50.63)"/><rect class="a" width="11.039" height="3.774" rx="1.294" transform="matrix(0.707, -0.707, 0.707, 0.707, 18.549, 24.52)"/></svg>