<svg xmlns="http://www.w3.org/2000/svg" width="20" height="20" viewBox="0 0 20 20"><defs><style>.a{fill:#bfc9d0;}</style></defs><path class="a" d="M22,12A10,10,0,0,0,12,2V4a8,8,0,0,1,8,8Z" transform="translate(-2 -2)"/><path class="a" d="M2,10V5A1,1,0,0,1,3,4H8A1,1,0,0,1,9,5V9a1,1,0,0,1-1,1H6a8,8,0,0,0,8,8V16a1,1,0,0,1,1-1h4a1,1,0,0,1,1,1v5a1,1,0,0,1-1,1H14A12,12,0,0,1,2,10Z" transform="translate(-2 -2)"/><path class="a" d="M17.543,9.7A6,6,0,0,1,18,12H16.2A4.2,4.2,0,0,0,12,7.8V6a6,6,0,0,1,5.543,3.7Z" transform="translate(-2 -2)"/></svg>